<?xml version="1.0"?><svg version="1.2" baseProfile="tiny-ps" viewBox="0 0 300 300" xmlns="http://www.w3.org/2000/svg" xmlns:xlink="http://www.w3.org/1999/xlink"><title>Quantum Shield Nepal</title><g><g fill="#fafdfa" transform="matrix(.1 0 0 -.1 0 300)"><path d="M1429 2886c-2-2-240-79-529-170s-535-170-548-176l-23-10 4-518 4-517 21-95c97-445 336-780 727-1020 39-24 129-72 200-107l130-64 43 4 44 5 126 62 127 61 110 74c359 241 585 566 677 974l21 96 4 522 4 522-18 9c-31 17-1091 352-1112 352-4 0-10-2-12-4z"/></g><g fill="#cbe2eb" transform="matrix(.1 0 0 -.1 0 300)"><path d="M1429 2886c-2-2-240-79-529-170s-535-170-548-176l-23-10 4-518 4-517 21-95c97-445 336-780 727-1020 39-24 129-72 200-107l130-64 43 4 44 5 126 62 127 61 110 74c359 241 585 566 677 974l21 96 4 522 4 522-18 9c-31 17-1091 352-1112 352-4 0-10-2-12-4zm63-105c13-6 127-42 253-81 234-73 425-134 618-197l108-35-4-496-3-497-18-75c-108-459-394-805-861-1036l-129-64-21 6c-42 13-260 126-329 171-289 186-495 443-604 753-40 115-60 213-72 350l-10 115v763l12 9c7 5 126 44 263 87 138 44 360 114 495 157s253 78 262 79c9 0 27-4 40-9zm-74-113-28-10v-223l-60-62-60-62v-263l13 4c6 3 45 51 85 109 40 57 77 104 82 104 4 0 44-49 87-110l78-110 3 134 3 135-55 55-55 56-3 114-3 115-30 11-30 12-27-9zm-178-54c-111-36-287-92-535-169-82-26-156-52-163-58l-13-10 3-91 3-91 155-3 155-3 78-77 77-77v-157l21-29c11-16 25-29 30-29h9v392l-62 64-61 64h-17c-22 0-40 20-40 46v22l15 12 15 12 24-6 25-6 6-20 6-20-10-17-9-17 59-63 59-63 2-215 3-215 10-2c6 0 27 23 47 53l38 54v507l-20 25-20 26 14 21 13 21h46l14-21 14-22-26-30-25-30v-462h8c4 0 22 19 40 42l32 42v298l60 68 60 68v202l-17-1c-10-1-65-16-123-35zm280-72v-108l60-59 60-59v-156l1-155 28-35c16-19 32-32 35-29s6 108 6 233l1 228-20 15-21 14v49l25 12 25 11 20-18c24-22 25-42 5-65l-16-18-1-253-2-254 34-52 33-53h27v13c0 6 2 103 3 214l2 202 57 58 58 58-6 36-6 35 16 13 16 13 24-6 25-6 6-19c3-10 3-26-1-35l-6-16-24-6-24-6-60-62-60-61 1-195v-195l29 35 30 34v152l74 73 74 73 153 2 154 1v197l-40 13c-22 7-132 43-245 79-113 35-276 88-363 115-87 28-165 51-173 51h-14v-108zm-367-78-6-16 17-16 17-17 14 18 14 19-6 14-5 14h-39l-6-16zm541 2c-3-9-3-23 0-32l6-15 17 3 18 3v50l-18 3-17 3-6-15zm-794-61-12-15 6-15 5-15h42l5 15 6 15-12 15c-7 8-16 15-20 15s-13-7-20-15zm1046-4c-3-5-3-17 0-26l7-16 21 3 21 3v40l-22 3-21 3-6-10zM534 2166c-3-8-4-31-2-52l3-38 25-7c14-4 56-7 93-8l68-1 26-30 25-30h97l11-20 11-20h-10c-5 0-11 4-13 10l-3 9-45 4-45 4-32 32-32 32-88-3-88-3-3-67-3-68h235l38-37c21-20 39-35 41-32 35 43 57 79 57 91v16l16 6 17 6 14-20c8-11 18-20 24-20h9v115l-72 72-72 73H539l-5-14zm1448-60-72-74v-95l20 18 20 18 16-14 16-13 24 27 23 27h87l34 35 34 35h176v110h-307l-71-74zm227-54-26-3-29-30-28-29h-84l-26-31c-14-17-26-34-26-37 1-4 16-25 35-47l34-40 31 38 31 37h240l-3 73-3 72h-60c-33 0-72-1-86-3zm-860-208-54-55-40 46-41 47-142-201c-78-110-146-203-151-205l-9-6-11 14-12 14 51 73 50 73-32 34c-18 18-41 38-51 43l-18 10-39-31-40-31-19 6-18 6-104-136-103-136 18-72c15-59 58-172 70-184 1-1 38 15 82 36 44 22 109 47 144 57l65 18h230l63-17c72-19 165-64 297-143l90-54 55-17 55-17h190l75 23 75 23 85 46c47 25 90 53 97 61 14 20 76 217 72 229-2 5-47 66-99 135l-94 127h-42l-34 30c-19 16-42 29-50 30h-16l-37-38c-20-21-37-44-37-51 0-13 125-197 141-207l10-6-12-14c-18-22-32-16-57 24-13 20-39 55-58 77l-34 40-13-20c-6-11-20-41-29-67l-17-48h70l-5-9c-7-10-85-26-92-19-2 3 5 30 15 61l20 57-14 8-15 8 30 35 29 36-26 39c-14 21-29 43-33 47l-7 8-68-26c-37-14-70-24-72-21-2 2 17 29 42 60l46 56-35 53-35 53-49 22c-27 12-51 22-55 22s-25-29-48-65c-22-36-45-65-49-65-5 0-25 27-45 60s-40 62-44 64c-4 3-32-20-62-50zm-24-157c-20-48-19-55 6-59l20-3-36-43c-42-48-55-49-31-3l16 30-19 13-19 14 35 47c20 26 37 46 39 44 3-2-3-20-11-40zm-439-85c-9-17-16-39-16-50v-18l-32-30-31-29 22 38 23 38-11 12-10 13 26 37 27 37 9-9 9-9-16-30zm844-88c-8-8-30-22-49-30l-36-15-69-67-69-67 21 30c11 17 42 57 69 90l49 60 39 6c22 3 44 7 49 8l8 1-12-16zM537 1883c-16-15-1-383 16-400l9-8 31 39c77 96 227 298 227 306 0 5-12 22-26 39l-26 31H656c-62 0-116-3-119-7zm1559-24-27-31 17-27c37-56 247-331 254-331 15 0 20 65 20 241v179h-238l-26-31zM894 1201c-39-11-103-36-143-55l-71-36v-13c0-15 86-161 103-176l13-10 65 27 64 27h250l79-38c43-20 83-37 87-37h9v72l35 35 36 36 36-6 37-6 24-25 24-24 5-46 6-46h17V763l63-19 62-19h233l28 25c90 83 256 301 241 316-3 3-31-8-63-24-74-37-199-72-284-79l-65-5-65 16-65 16-80 40c-44 22-118 62-165 90l-85 51-65 20-65 21-115 4-115 4-71-19zm514-211-16-10-12-35c-7-20-10-41-7-48l4-12 73 3 72 4-5 41-6 41-17 13c-21 15-62 16-86 3zm-466-75c-29-8-66-22-82-30l-30-16 10-18c5-10 51-58 102-106l93-87 105-70c58-38 151-92 208-119l102-50 93 44c123 58 307 177 307 198 0 3-37 9-82 12l-83 6-53 16-53 16-26-21-26-20h-83c-45 0-89 3-98 6l-16 6v147l-25 19c-14 11-55 32-91 46l-66 27-77 4-76 5-53-15zm479-89-12-14 8-49 8-48h40l3 25c2 14 8 35 14 47l11 22-13 16c-16 19-44 19-59 1z"/></g><g fill="#99bdcf" transform="matrix(.1 0 0 -.1 0 300)"><path d="M1429 2886c-2-2-240-79-529-170s-535-170-548-176l-23-10 4-518 4-517 21-95c97-445 336-780 727-1020 39-24 129-72 200-107l130-64 43 4 44 5 126 62 127 61 110 74c359 241 585 566 677 974l21 96 4 522 4 522-18 9c-31 17-1091 352-1112 352-4 0-10-2-12-4zm366-197c176-56 401-127 500-158l180-57 3-419 3-420-11-100-11-100-26-100c-45-172-127-342-233-483l-58-77-109-107-110-106-109-72c-113-75-334-190-364-190-52 0-313 143-450 246l-96 72-94 98-93 98-65 99-65 100-49 115c-57 135-92 260-108 392l-11 95 3 429 3 429 85 28c47 15 195 62 330 104s326 103 425 135l180 59 15-4c8-3 159-50 335-106zm-384-28-14-9-3-113-4-113-55-56-55-56v-256l14 11c7 6 44 56 82 111 37 55 70 100 73 100 3-1 38-46 76-101 39-55 76-105 83-111l12-10v248l-60 59-60 59v234l-22 6c-32 8-51 7-67-3zm-136-40c-44-15-227-74-407-131l-328-103v-187h305l78-78 77-77v-156l25-37 25-37v401l-53 52c-29 29-69 60-88 70l-34 17-3 27-3 27 25 17 26 16 26-17 26-17-5-31-4-32 59-65 59-65-2-60c-1-33-2-129-1-212l2-153h8c4 0 22 23 40 51l33 51-1 256-1 256-14 16c-32 35-12 80 35 80 32 0 50-17 50-46v-23l-20-14-20-14-1-228c0-125 2-229 4-232 3-2 19 15 36 39l32 43-3 147-2 148 57 58 57 58v214l-7-1c-5 0-44-13-88-28zm251 22c-8-9-6-174 2-195 4-9 31-41 60-71l52-55v-308l30-34 29-35 2 35c1 19 3 122 4 228l2 193-17 9c-10 5-20 18-23 29l-5 20 15 20 14 21h23c12 0 27-5 34-12l12-12v-54l-15-12-15-12v-499l35-54c19-30 39-55 45-55h10v436l59 58 60 59-10 18-9 18 10 25 10 26h58l12-14 12-15-4-23-3-23-37-18-38-19-50-56-50-56v-183c0-101 3-183 6-183s14 10 25 23l18 22 1 75v75l79 83 78 82h312l-4 63c-2 34-5 76-5 94v31l-202 65c-112 36-284 90-383 122-99 31-192 60-207 65-14 5-29 6-32 3zm-364-176-11-13 9-13 8-14 17 7 16 6-3 17c-4 22-22 27-36 10zm539 4-14-9 6-16 6-16h15c8 0 18 5 22 11l6 11-13 14-14 13-14-8zm-801-80c0-11 5-23 10-26l11-7 15 12 14 13-11 13c-6 8-18 14-25 14h-14v-19zm1054 4c-3-8-3-19 1-25 9-14 32-12 38 4l5 14-11 11c-15 15-27 14-33-4zm39-287-73-73v-89l14 20 15 19 14-20 15-19 27 32 27 32h94l22 30 22 29 93 3 92 3 3 48 3 47h-113c-62 0-129 3-148 6l-35 5-72-73zm-1453 12v-50h176l28-29 27-28 51-6 51-6 14-21 14-20h16c9 0 27-10 40-22l23-21v108l-72 72-72 73H540v-50zm7-77c-4-3-7-35-7-70v-63h233l31-36 31-36 34 47 33 46-23 25-22 24h-80l-38 35-39 35h-73c-41 0-77-3-80-7zm1610-28-28-35h-97l-16-25c-21-32-21-35 14-75l29-35 36 37 36 38 112-2 112-2v129l-85 3-85 3-28-36zm-605-185c-24-39-47-70-52-70s-26 29-47 65c-21 35-41 65-45 65s-28-22-54-50c-26-27-53-50-60-50h-13l-28 40c-15 22-31 40-34 40-5 0-133-174-239-327l-51-73h-13c-7 0-19 6-25 13l-11 14 43 59c24 32 47 65 51 72l8 14-38 39c-21 21-42 39-47 39-4 0-29-14-54-31l-45-31-10 10-11 11-103-136c-57-75-104-137-104-138 0-28 69-224 85-243 2-2 37 12 78 32 42 19 108 45 148 56l74 20h211l70-19c94-25 152-52 267-123 54-33 121-69 150-80l52-21 95-4 95-5 70 16 70 16 104 52 104 52 22 51c12 27 31 82 42 120l20 70-94 125-94 125-26 7c-14 4-44 21-66 39l-39 32-45-46-46-45 67-96c37-52 71-98 77-101 15-10 10-34-10-45l-19-10-61 82-61 81-25-54c-13-30-25-60-25-68v-13l35 4 35 4v-8c0-13-47-28-86-28h-34l20 50c24 61 25 70 5 70-22 0-18 12 15 48 17 18 30 35 30 38 0 2-12 22-26 44l-27 40h-14c-7 0-41-12-74-26-34-14-64-23-67-20-2 3 16 31 42 62 25 31 46 61 46 66s-14 29-31 54l-30 45-52 24c-28 14-51 25-51 25-1 0-20-32-44-70zm-216-130c-9-22-16-47-16-56v-15l20 6 20 6v-8c0-5-25-33-56-63l-56-55 21 42c26 52 26 61 0 65l-20 3 47 63c25 34 49 61 52 58 2-3-3-23-12-46zm-431-59 5-9-20-35-20-34 5-14 5-15-40-39c-46-45-48-43-17 21l22 47-13 4-12 5 31 39c31 40 43 46 54 30zm822-137c-15-13-35-24-43-24h-15l-84-80c-46-44-87-80-90-80-7 0 25 45 100 142l44 56 53 9c29 5 55 7 58 5s-8-15-23-28zM540 1728c0-166 6-238 20-238 5 0 61 69 126 153 64 83 122 158 127 165l10 13-33 34-34 35H540v-162zm1565 132-29-31 13-22c26-43 246-336 253-337 9 0 20 192 16 310l-3 105-110 3-111 3-29-31zM895 1197c-58-15-190-74-205-92l-10-12 51-84c27-46 53-87 57-91l7-7 50 23c134 64 291 59 434-13l59-30 6 41 7 40 29 29 28 29h84l29-29 29-29v-81l10-6 10-6V772l40-16c23-9 73-21 113-26l72-11 69 7 69 7 41 41c87 87 225 270 213 282-2 3-33-9-68-26-35-16-100-39-143-50l-79-20h-143l-57 15c-64 17-153 60-275 133-45 28-110 60-145 72l-62 23-135 3-135 3-50-12zm516-214-21-18-9-32c-5-17-7-34-3-37 3-3 37-6 75-6h70l-6 38-6 37-22 18c-12 9-29 17-39 17s-27-8-39-17zm-499-82c-30-10-59-24-65-31l-12-12 102-98 101-98 109-72c59-39 151-92 203-117l94-46 46 17c98 36 338 185 348 216l4 10h-124l-69 17-69 16-18-16-19-17h-201l-10 13-11 13-3 74-3 75-80 34-80 35-95 3-95 3-53-19zm514-77-16-15 10-19c6-10 10-30 10-44v-26h37l7 46 6 47-11 13c-15 18-24 18-43-2z"/></g><g fill="#679ebb" transform="matrix(.1 0 0 -.1 0 300)"><path d="M1429 2886c-2-2-240-79-529-170s-535-170-548-176l-23-10 4-518 4-517 21-95c97-445 336-780 727-1020 39-24 129-72 200-107l130-64 43 4 44 5 126 62 127 61 110 74c359 241 585 566 677 974l21 96 4 522 4 522-18 9c-31 17-1091 352-1112 352-4 0-10-2-12-4zm414-207c210-66 439-139 510-162l127-41v-944l-20-100c-40-201-104-356-217-527l-67-100-120-120-121-121-108-72-109-73-134-66-134-66-83 37c-45 21-130 65-188 98l-107 60-105 84-106 84-73 81c-179 196-297 435-349 701l-19 99v474c0 261 2 475 5 475s110 33 238 74 293 93 367 116c74 24 196 62 270 86s141 43 148 44c8 0 185-54 395-121zm-421-20-22-8v-227l-60-59-60-59v-236h8c7 0 117 153 140 197l13 24 12-10c7-5 44-55 82-110 39-55 72-101 75-101s4 55 3 121l-1 121-56 57-56 57v222l-28 10-27 9-23-8zm-167-50c-49-16-229-74-400-127l-310-98v-179l151-5 150-5 82-75 82-75v-172l19-17 19-17 1 186 1 187-54 57-55 57-33 9-33 10-3 35-4 34 18 13c10 7 28 13 41 13h23l16-25 17-26-11-23-10-23 59-59 59-58v-426h8c4 0 22 23 40 50l32 50-1 250-2 250-13 11-14 11v68l25 12 25 11 25-11 25-12v-70l-20-12-20-13v-225l1-225 29 35 30 34v301l60 67 60 66v192l-12-1c-7-1-53-14-103-30zm275-67v-97l60-67 60-66v-309l25-23 25-23v440l-20 18-20 18v47l25 16 26 17 24-11 24-11 7-26 6-25-16-25-16-25-1-250v-250l32-46c17-25 33-43 36-41 2 3 4 96 3 207l-1 202 59 66 59 67-4 30-5 30 21 19 20 18 26-6 26-7 11-24 11-24-6-15c-4-9-19-21-34-28-15-6-54-37-85-67l-58-55v-371l20 25 20 25v150l80 80 79 79h151l151 1-3 89-3 89-190 62c-222 73-609 195-618 195-4 0-7-44-7-98zm-368-89 3-18h30v30l-18 3-19 4 4-19zm538-3v-20h30v40h-30v-20zm-794-47c-3-4-6-12-6-20v-13h40v14c0 15-24 28-34 19zm1046-15c3-7 12-14 21-16l17-3v31h-42l4-12zM540 2126v-43l38-7c20-3 62-6 93-6h55l29-30 29-30h85l20-26 20-26 12 8 12 7 18-24 19-24v108l-67 68-67 69H540v-44zm1447-30-67-74v-64l15 12 15 12 16-13 16-13 20 27 20 27h95l32 35 31 35h170v90h-297l-66-74zM540 1980v-60h224l37-35 36-36 26 35c33 42 33 47 4 74l-23 22h-80l-29 30-29 30H540v-60zm1620 30-21-30h-96l-15-17c-8-10-18-23-21-29l-7-12 29-35 28-36 33 34 34 35h226v120h-169l-21-30zm-808-175c-29-30-57-55-61-55-5 0-21 18-36 40s-31 40-35 40c-8 0-85-103-198-265-46-66-88-124-92-128l-8-9-21 14c-11 7-21 16-21 20 0 5 20 37 45 72 25 36 45 69 45 73 0 5-17 26-38 46l-38 38-48-37-48-36-10 10-11 11-98-127-99-127v-21c0-25 44-163 65-203l14-28 79 38c44 21 109 46 143 56l64 17h240l59-18c87-27 155-59 267-127 55-33 126-70 157-82l57-21h210l78 27c43 15 113 46 154 69l76 41 18 41c9 23 27 75 40 116l22 75-94 124-94 125-28 7c-15 4-41 19-58 33s-36 26-43 26c-12 0-76-72-76-84 0-3 34-54 75-112l76-106-18-14c-10-7-23-14-28-14-6 0-35 34-64 75-30 41-56 75-58 75-6 0-43-83-43-97v-13h70v-10c0-14-30-27-82-35l-48-7v9c0 6 9 36 20 67l19 57-19-6-20-6v10c0 6 16 28 35 50l35 38-30 42-30 41-63-24c-34-13-70-27-79-31l-18-7v9c0 5 23 37 50 72l51 62-33 47-34 47-44 22c-25 12-47 22-50 23-3 0-25-31-49-70-23-38-46-70-50-70s-23 25-42 56c-18 30-39 62-44 70l-10 15-53-56zm8-85c0-6-6-23-14-38-7-15-16-37-20-49l-7-22 27-3 28-3-59-64-59-63-4 10c-2 6 6 29 18 52l21 42-21 5c-26 7-25 9 29 83 42 57 61 73 61 50zm-450-116c0-8-7-26-16-39l-16-24 7-19 6-20-48-40c-26-23-49-39-51-37s8 25 22 52l27 48-10 3c-18 6-13 22 19 63l31 38 14-6c8-3 15-12 15-19zm834-118-16-25-35-12-36-11-79-76c-43-41-81-72-84-69s28 51 70 106l76 100 42 4c24 2 51 4 61 5l17 2-16-24zM543 1693l6-186 8-8 8-8 115 151c63 82 119 156 123 164l8 14-23 30-23 29H651l-114 1 6-187zm1559 157-22-28 127-170 128-169 7 16c4 9 7 98 7 199l1 182-112-1h-113l-23-29zM905 1195c-68-18-215-84-215-97 0-16 93-170 105-175l13-4 34 17c18 9 56 23 83 30l50 14h141l57-15c32-8 80-26 107-40s52-25 55-25 5 11 5 25c0 15 7 39 15 55l15 30 30 15c39 20 66 19 105-5l33-21 11-31c6-17 11-41 11-52 0-12 4-26 9-31l10-10 3-54 3-54 40-15 40-15 129-5 129-4 78 82c70 74 184 228 175 237-2 2-25-7-52-21-67-33-185-64-269-71l-70-6-76 20-77 20-68 34c-38 20-107 58-153 86l-85 51-65 21-66 21-115 4-115 4-60-15zm496-231-21-27v-47h19c10 0 39 3 65 6l46 7v54l-18 16-19 17h-52l-20-26zm-471-62c-30-10-63-23-73-28l-17-10 45-51c96-109 325-273 484-346l65-29 33 5 33 6 111 61c61 33 136 80 167 103l56 42-75 7c-40 5-97 15-126 23l-53 15-20-20-20-20h-196l-12 12-12 12v146l-22 14c-13 8-54 27-93 42l-70 26-75 4-75 4-55-18zm496-80c-2-4-2-27 1-50l6-42h27v23c0 13 5 28 12 35l11 11-13 16c-13 16-36 20-44 7z"/></g><g fill="#599ec0" transform="matrix(.1 0 0 -.1 0 300)"><path d="M1413 2876c-13-7-21-15-18-18 3-2-10-3-28 0l-32 4 13-13 13-14h144v-40l20-3c11-2 25-8 30-13 6-4 31-11 55-15 51-7 122-29 162-50 14-8 38-14 52-14h26v-9c0-8 19-14 115-37 17-4 41-9 53-10 13-2 35-10 48-18 13-9 34-16 48-16s27-4 31-9c3-5 29-17 57-27l52-17 50 2c28 1 54 5 59 10l9 9-21 7-21 6-19-6-19-6-7 11-6 10 23 9 23 10-20 2c-11 1-26 2-32 2-7-1-13 3-13 7s-12 11-27 14l-26 7-8-13-8-12-41 22c-45 24-70 28-70 12v-10h-34l19 13 18 14-7 12-8 12-17-3-18-3-16 14c-9 7-29 14-44 14-16 1-31 5-34 10s-12 9-20 10c-8 2-20 6-27 11l-13 8-14-6-15-5v9c0 6-7 10-15 10s-15-4-15-10v-10h-24c-14 0-27 4-30 9l-6 9 12 5 13 5-18 1-18 1 6 10 6 10-8-1c-4-1-16 1-26 5l-17 8-38-15-37-15-32 5c-18 3-33 9-33 14v9h71l-15 16-16 16-31-7-31-7-7 9c-6 9-93 54-102 52l-26-13zm507-178c3-3 2-10-2-14l-8-7v23h-58l-5 19-5 19 37-17c20-9 39-19 41-23zm55-18 20-9h-27l-28-1v10c0 12 8 12 35 0zm-701 145-6-15h-17c-9 0-22-5-28-11l-11-11-45-2-45-1 5-8 5-9-18 2c-11 1-27 2-37 1l-18-1 7-12 7-11-16 6-17 6v-19h-81l7-11 6-11-18 2c-11 1-22 1-26 0-14-4-28-7-40-9l-13-2 18-10 19-11 44 7 44 6v-22l37 3 36 3 4 12 4 12-28 3-28 4 19 9 19 8 18-11c21-14 62-16 73-4 4 4 44 19 89 35l82 27-45-5-45-6 22 20 22 21h50l7 12 7 11-16-6-16-6-6 9c-9 15-25 12-31-5zm-106-75-13-20h-45v20h19c11 0 23 5 26 10 3 6 10 10 16 10h9l-12-20zm222 60c0-5 7-10 16-10h15l-6 10c-3 6-10 10-16 10-5 0-9-4-9-10zm-580-131v-9h-54l10-9c5-5 18-12 29-15s0-2-25 1-47 5-50 5c-3 1-20-3-37-7l-33-7v-20l-15 6-14 5-33-12-33-12-2-12-3-13h60v-20h72l28 20c16 11 43 23 62 26 18 4 41 11 50 16 10 5 44 13 75 19 75 13 93 19 93 28v8l-47-4-48-5-42 10-43 10v-9zm-120-84v-15l-20 3c-11 2-26 9-32 15l-12 12h64v-15zm721 23c1-18 0-69-1-113l-2-80-10-12-10-13 6-25 6-25h-11c-7 0-18-8-25-17l-13-18-1 16c0 8 5 20 12 27l12 12-7 7-7 7-30-29-30-29v-19c0-29 30-126 41-133l10-6 24 28c13 15 32 43 42 61s22 33 28 33 29-26 53-57c49-68 102-131 102-122 0 4-6 21-13 39l-14 32 8 41 7 41 11 4c6 2 11 12 11 21v18l-43 40-44 41-14-19c-18-26-30-23-58 12l-24 30 14 26 14 25 6-23 6-24 12 29 11 28-2 89-3 89h-27l5-22c3-13 2-41-2-63l-8-40-10 25-11 25 5 38 4 37h-31l1-32zm145-306c-9-8-26 10-26 26l1 17 14-19c8-11 13-21 11-24zm-211 309-6-11-10 6-10 6-72-22c-40-12-82-27-94-33l-23-10v-13c0-7 9-18 20-24l20-11v15c0 8-6 17-12 19l-13 5 30 1c17 0 36-3 44-8l13-9-17-10-18-10 21-11 22-12v-16c0-9-5-32-12-50l-12-33h-26v-66l20-14c11-8 20-21 21-30 0-8 7 4 16 28 8 23 18 42 23 42 4 0 15 12 25 26l17 27-13 9-14 10 22-5 21-5-10 29-10 28 10 17 9 17 8-39 7-38 9 16 9 16 2 81c2 79-3 103-17 82zm-8-53-5-13-1 19c-1 11 2 17 5 13 3-3 4-12 1-19zm-47-82v-44l-15-28-15-29v104l-12 7-11 7 18 14c11 7 22 13 27 13h8v-44zm245 126c-8-8-5-105 4-127l8-20 7 23 8 24 19-5 19-5 6 9c3 5 14 9 25 9h19v-31l20 11 19 10-5 15-6 14 24 5c12 3 32 7 43 9l20 4-25 10c-82 36-190 60-205 45zm-1069-48-6-16-33 5-32 5-32-14-33-13v-468l1-468 9-65c18-131 22-155 30-158l8-3-6-21-5-21 10 6 11 7 4-55c7-79 28-93 31-21l2 36h10l10 1 5-50c3-27 9-53 14-58l9-8-7 68c-4 37-11 77-16 90-5 12-12 40-15 61l-7 40-8-13-7-13-8 12c-4 6-9 24-12 41l-4 29h24l-8 103c-10 137-10 168 0 264l8 83-11 13c-13 15-13 25 0 184l11 123-13 29-12 30 7 75 7 75 51 17 51 17-22 8c-12 5-22 13-22 18v10l28 3 27 3-22 12-21 13-6-16zm-92-539c-3-214-7-391-10-394-2-2-4 158-4 357v361l-11 27-10 28 6 24 6 24 14-18 13-19-4-390zm12-512c-3-26-11-52-16-57l-10-10v50c0 51 5 64 23 64h10l-7-47zm2044 1047-15-9-24 6-25 6 15-15 14-16 10 6 10 6-13-16-13-16 47-14 48-13 9-34 8-34 26 27c13 15 29 41 33 57l9 30-32 14-32 14-9-10c-6-5-16-9-23-9h-13v15c0 17-9 19-30 5zm20-20c0-5-4-10-10-10-5 0-10 5-10 10 0 6 5 10 10 10 6 0 10-4 10-10zm-1900 0-15-10 15 1c8 1 26 5 40 9l25 8-25 1c-14 0-32-4-40-9zm1170-15c0-8 2-15 4-15s6 7 10 15l5 15h-9c-6 0-10-7-10-15zm30 7c0-6 7-13 16-16l16-6-4-56-5-56-16-10-17-9v-49h51l-6 10-6 10h15c20 0 21-16 1-24l-15-5 7-33c3-18 11-36 16-40l10-6 18 21c10 12 18 18 19 13 0-21 29 31 30 54v24l12-12c7-7 16-12 21-12h9l-5 28c-3 15-3 39 0 55l6 27h41l41-1 18-13 17-13v-55l13 5 12 4 2 24c0 13 1 29 2 36l1 11 20-5 20-5v9c0 12-28 27-100 52l-55 20-54 3-54 3-4-12-5-13 19-1c10-1 21-1 26 0 14 2 7-19-13-36-11-10-20-23-20-30 0-21-16-15-17 7l-2 20h20l-3 18-3 17h-39l-6 25-6 25-22 3-22 3v-9zm220-52 15-10h-55v10c0 13 20 13 40 0zm-105-110-7-12-9 13c-4 7-5 17-2 22l5 9 10-10 10-10-7-12zm-5-45 13-16-11-11-11-11-16 13c-8 7-15 19-15 26v14h14c7 0 19-7 26-15zm-790 190c0-17-16-20-25-5-3 6-16 10-28 10-29 0-201-52-205-62-2-4-11-8-20-8h-16l12-12 13-13 9 15c14 23 18 8 10-40-4-25-8-39-9-32l-1 12h-58l-6 16c-8 22-8 26 3 19l10-5 7 11 7 12-59-7-58-7-16-14-17-15h-26c-32 0-39-10-31-49l7-31 26 1 26 2-22 4-23 4v29h47l17-19 17-19-12-8-12-7 7 11 7 12h-10c-6 0-11-7-11-15v-15h-17l-18-1 19-10c10-6 55-17 100-24l81-13h-45c-25-1-78 3-119 7l-73 7-5-13c-3-8-3-16 0-19s60-7 128-10l123-4 7 12 8 12 25-12 26-12 9-22c5-13 20-33 33-46l25-22 24 18c13 10 36 23 52 30l27 12v33l-55 54c-56 55-75 63-94 39l-11-14 20-5c11-3 20-10 20-16v-11h-70v19c0 11 5 23 10 26 6 3 10 15 10 26v19h-20v57l20 18 20 18 36-1c46-2 48-4 49-55v-42l10-7 9-7 8 12 8 12 10-15c5-8 8-21 5-28l-5-14 29-29c16-16 34-29 39-29h10l-4-107c-1-60-1-98 2-85 3 12 10 22 15 22h10l6-32 7-33 7 25c4 14 7 61 8 105l1 80-9-14-8-13-7 10-6 10 15 42 15 43v116l-10 6c-11 7-50 88-50 104 0 6-4 11-10 11-5 0-10-7-10-15zm-46-31c20-8 21-24 1-24-8 0-15 4-15 9s-8 12-17 14l-18 5 17 1c9 0 23-2 32-5zm54-118c39-31 62-57 62-71v-15h-14c-8 0-16 6-19 13l-4 12-16-14-17-13-10 27c-5 14-10 33-10 41s-7 17-15 20l-15 6 5 9 6 8 17-6c9-4 23-12 30-17zm-243-26c-3-5-10-10-16-10-5 0-9 5-9 10 0 6 7 10 16 10h15l-6-10zm105-50c0-5-4-10-10-10-5 0-10 5-10 10 0 6 5 10 10 10 6 0 10-4 10-10zm30-35c0-8-4-15-9-15-13 0-22 16-14 24 11 11 23 6 23-9zm-30-30c0-8-4-15-10-15-5 0-10 7-10 15s5 15 10 15c6 0 10-7 10-15zm75-25 6-10h-10c-6 0-11 5-11 10 0 6 2 10 4 10 3 0 8-4 11-10zm-48-6c-3-3-12-4-19-1l-13 5 19 1c11 1 17-2 13-5zm670 280c-4-4-7-24-7-45v-38l-12-7-11-7 5 20 5 20-18-4c-26-7-24-14 16-53 19-19 35-39 35-45v-11l19-1 19-2 5 36 6 36-18 26c-10 14-22 39-27 54l-9 28-8-7zm-477-24c0-5 7-10 15-10s15 5 15 10c0 6-7 10-15 10s-15-4-15-10zm540 0c0-5 7-10 15-10s15 5 15 10c0 6-7 10-15 10s-15-4-15-10zm431-24c2-2 24-6 49-9l45-6-20 9c-19 8-83 14-74 6zm99-29c0-8-6-20-14-26l-14-12-7 11-7 12-37-7c-20-4-42-8-48-8h-13v-17c0-26-10-30-36-14l-23 16-11-7-11-7 5-14 5-13-28 5-29 6-56-58c-60-62-66-74-38-74h18l17-20c9-11 17-27 17-35v-15h37l24 23c13 12 32 34 41 48l17 26 20 6 21 5v-18l128 4c70 2 128 4 130 5 1 1 2 8 2 17v16l-22-5c-13-4-41-9-63-12l-40-6-30 10-30 9 79 1 78 1-5 20-5 20h40l-4 12c-3 7-15 15-28 18s-25 11-28 18l-4 12h62v30l-22 5c-13 3-32 6-43 8-11 1-26 6-32 10l-13 8v-14zm-190-117c0-5-4-10-9-10-6 0-13 5-16 10l-6 10h15c9 0 16-4 16-10zm-55-20 6-10h-10c-6 0-11 5-11 10 0 6 2 10 4 10 3 0 8-4 11-10zm162-16c-3-3-12-4-19-1l-13 5 19 1c11 1 17-2 13-5zm-199-46c7-7 12-16 12-20v-8l-20 12c-20 13-27 28-12 28 4 0 13-5 20-12zm543 70-1-87 15 5 15 6v104l-9 10c-5 5-11 18-14 29s-5-19-6-67zm-749 17v-30l5 18c2 9 2 23 0 30l-5 12v-30zm789-72 2-98 8 45c4 25 8 69 8 98l1 52h-20l1-97zm-1303 5c-2-12-8-23-15-25l-11-4-5 23c-2 13-5-32-6-99l-1-123h8c5 0 16 6 26 13l19 14v29c-1 84-6 194-8 194s-5-10-7-22zm-4-159c-8-14-24-10-24 6v14l15-5 15-6-6-9zm457 145 1-19 5 13c3 7 2 16-1 19-3 4-6-2-5-13zm61-123 2-126 6 75 5 75 5-74 5-75-13-13-13-13 12-34c7-18 20-44 30-57l18-24 7 7 6 7-6 26-7 26-9-6-10-6 2 88 2 88 3-57c2-32 7-58 11-58h7l3 116c1 64 0 124-3 134l-6 18-29 4-30 5 2-126zm15 77-5-13v50l5-12c2-7 2-19 0-25zm30 10-5-13-1 19c-1 11 2 17 5 13 3-3 4-12 1-19zm65-62 1-65 8 5c5 3 9 12 9 19v14l14-5 14-5 6 10 7 10-21 11-20 11v24c0 13-4 27-10 30l-9 6 1-65zm641 29v-40l4 23c2 12 2 30 0 40l-5 17 1-40zm-1943 11v-15h58c151 1 225-2 219-7-3-4-58-6-121-5l-115 2-20-20-21-21h220v-9c0-5-6-11-12-14l-13-5 20-16 20-15 35-1c19 0 45-3 57-6l22-6 7-20 6-20 11 11 11 11-12 20c-6 11-12 25-12 31 0 7-8 18-17 26l-18 14 13 6 14 5-33 34-33 34H550v-14zm320-41v-15h-15c-16 0-20 12-8 23 11 12 23 8 23-8zm-4-60-20-15h-66v30h53l52-1-19-14zm164 96v-19l-25-6-25-6v-15c0-8 4-15 9-15s12-8 15-17c3-10 12-27 19-39l12-21 1 79c1 43 0 78-2 78s-4-9-4-19zm266 3c-3-9-6-25-6-36v-20l15 12 15 12v48h-9c-5 0-12-7-15-16zm386-6c-1-14-5-35-9-45l-7-18-7 30-7 30-1-53-1-53 10 6 10 6 8-22 9-22 4 9c3 5 2 43-1 84-4 41-7 63-8 48zm357 6-13-16 15-9c8-5 20-7 27-4l12 4v-19l58-1c70-1 58-6-26-11l-62-4 12 9 13 8-24-6-23-7-9 13-8 14-13-13-12-12h12c7 0 12-5 12-11v-11l-20 5-20 5-6-10-6-9 44 3 43 3 3-10c2-5 12-13 23-17l21-8 24 6c24 6 34 24 12 24h-11l6 6c10 10 63 16 147 17 41 0 67 2 58 5l-18 3v27l-115 7-115 7v8c0 5 15 11 33 13l32 4-46 1-47 2-13-16zm189 9c18-2 45-2 60 0l27 4h-120l33-4zm98-2c-4-7-5-15-2-18 9-9 19 4 14 18l-4 13-8-13zm205-178-1-133h-20l-1 58c0 67-6 112-13 120-3 3-6-44-5-104v-109l9-20c9-21 9-21 15 8 2 11 6 22 10 25l7 7-2-125c-1-69-1-143 0-165l2-40 5 14 5 13 9-13 8-14-4 85c-2 47-5 175-5 285l-1 200-9 20-9 20v-132zm-1963 60-18-4v-36l24-12 24-13 46-1h46v-17H550v-26l95-3 95-2v7c0 4-8 13-17 20l-18 13 18 1h18l-7 12-7 11 11-7c7-4 12-14 12-22v-14h19c11 0 22 4 26 9l5 9-29 15-29 15-28-6-27-5 7 12c4 6 14 11 22 11 23 0 16 20-12 30-25 10-104 12-136 3zm122-24c0-4-25-7-55-8h-55v14h55c30 0 55-3 55-6zm250-2v-37h9c5 0 13 10 16 21l7 21-16 16-16 16v-37zm1237 13-18-18 11-7 11-7-12-14-11-14h13l14-1-24-20-25-20 55 3 54 3-3 18-3 17h59l-2-17-1-17h50l-3 29c-5 37-8 41-26 26l-14-12-37 3c-20 1-39 6-41 10l-5 8h45c24 0 51 3 60 6l16 6v38l-72-1h-73l-18-19zm129-9-6-9-20 5c-28 7-25 13 6 13h25l-5-9zm-376-6v-25l18 9c9 5 33 16 52 24l35 16h-52l-53 1v-25zm-64-1-6-16 12 4c6 2 14 10 16 16l4 12h-10c-5 0-13-7-16-16zm272-29c-5-5-27-8-95-14-7-1-17-10-23-21l-11-20 18-25c10-13 24-25 31-25h12v14c0 7-7 19-15 26l-16 13 11 11 11 11 14-18 14-19 18 11 18 10-22 1h-23v20l29-6 28-6 6 21c5 22 4 25-5 16zm-1328-20v-15h30v30h-30v-15zm326 0 6-16-12 3-12 3-3-32-3-32 19 12 19 12v27c0 15-4 30-10 33l-10 6 6-16zm716-44-3-56 11 11c6 6 14 29 17 51l5 40-13 5-14 5-3-56zm-761 33 1-19 5 13c3 7 2 16-1 19-3 4-6-2-5-13zm-249-29-12-25h10c9 0 25 39 18 46-3 2-10-7-16-21zm-47 5c3-5 8-10 11-10 2 0 4 5 4 10 0 6-5 10-11 10h-10l6-10zm215-4c0-7 7-27 15-42l15-29v27c0 33-9 58-21 58-5 0-9-6-9-14zm-460-53v-14l9 6 10 5 6-10 6-10h-31v-110h19l-6 17-6 16 22-22 23-23-16-17c-9-10-16-27-16-39s-5-41-12-65l-11-43 10-29 9-29 32 47 33 46-20 20-20 20 8 28 7 28 19 3 18 4-5-24c-3-12-7-29-9-37l-4-13 12-5 13-5 9 24c5 13 17 30 26 38s21 24 26 37l9 23h30v14c0 8 7 16 15 20l15 5v51h-31l6 22 7 21-18-7-17-7-6 9-6 9-82 6-83 5v-15zm150-143c-8-5-23-10-32-10h-18v20h40v24l12-12 13-13-15-9zm-90-134c0-3-4-8-10-11l-10-6v10c0 6 5 11 10 11 6 0 10-2 10-4zm1550 284v-10h-17c-10 0-27-8-38-17l-20-16 16 6 16 5-4-22-5-23 16-16c9-8 16-19 16-24 1-13 37-53 49-53 6 0 11-4 11-10 0-5 8-19 18-29 9-11 33-44 51-75l35-56 8 13c4 6 8 18 8 25v12h-30v30h-30v70h29l9-32 9-33 8 25c4 13 14 30 21 38l14 13v138l-12 7c-6 4-32 8-57 8l-46 1 3 18 3 17h-81v-10zm7-82-5-13-1 19c-1 11 2 17 5 13 3-3 4-12 1-19zm73-68c0-5-7-10-15-10s-15 5-15 10c0 6 7 10 15 10s15-4 15-10zm50 149v-9h45c3 0 6 3 8 6 1 4-10 8-25 10l-28 3v-10zm-1200-24v-25h9c5 0 11 9 14 19l5 20-14 5-14 5v-24zm297 10-6-15h9c6 0 10-5 10-11v-11l-17 13-16 14-4-12c-8-23-40-52-66-58l-27-7v10c0 14-47 62-60 62-6 0-10-6-10-13s-9-23-20-35-20-24-20-26c0-3-20-27-45-53l-45-47v-35l15 5c8 4 15 10 15 16v9l15-15 16-15 17 5 17 6-13-9-13-10 7-16 6-17h-9c-5 0-15 9-22 19l-14 19-19-11-19-12-9 15-10 15-10-15c-5-8-10-22-10-31v-17l-15-6c-8-3-15-10-15-15 0-6-14-30-31-55l-30-46h-18c-10 0-25 7-32 17l-14 16 3 21 2 21-12-19c-7-11-23-30-35-43l-22-23-15 6-16 6v18c0 10-7 33-15 53l-14 34 6 7c4 3 10 6 15 6h8v-35c0-39 5-42 31-20l17 16-12 24-11 25h-25v30h-40v-12c0-7-15-25-34-40-33-27-85-95-99-130-3-10-11-18-17-18-5 0-10-7-10-15s4-15 9-15 12-15 16-32c3-18 16-63 27-100l22-68h14c8 0 26 6 40 14 15 8 36 17 47 21l20 6-19 15-20 14 22 20c11 11 26 20 32 20h11l-7 12-7 11 12-7 12-8-5-14-5-14 18-9 18-10 83 25 83 26 32-6c18-4 70-7 116-7l83-1 13-17 12-18 35-1 35-1 19-19c11-11 41-27 68-37 27-9 59-21 72-26l23-9-6-11-7-10 61 7 61 7v-23h19c11 0 22-4 26-9l5-10-19-6-20-6-20 13c-12 7-21 16-21 20 0 5-9 8-20 8h-20v-10c0-6 10-14 23-19s29-16 36-24c7-9 27-19 44-23 18-3 37-10 42-14 6-5 33-11 60-13 28-3 64-8 81-12l32-7 6 11 7 11h69l40 25 40 25h50v10c0 6 7 10 16 10h16l-13 16-13 16-4-11c-2-6-11-11-20-11h-16l22 16 23 16 47-2c26-1 57 1 69 5l22 7 6 18c7 23-4 50-21 50-16 0-17 4-5 28 5 9 14 28 20 42l11 25-3-37-3-38h36l1 13c3 27-3 63-12 71-13 14-11 42 4 55l14 11 13-28 12-27 9 24 9 24-20 19c-11 10-20 23-20 27 0 5-7 11-15 15l-15 5-18-39-17-40h-13c-8 0-12 3-10 8 3 4 11 22 18 40 8 17 18 32 22 32s8 8 8 19v19l-30 29-31 30-34-16c-19-9-34-21-35-26 0-6-10-16-21-23l-21-14-11 11-11 11h34v30h33l-7 40-6 40h8c5 0 15-11 22-25 17-32 30-32 30-1v24l-14 11-13 11-19-4c-11-2-29-7-41-11l-23-7v-22l-1-21-15 20-15 20 12 4c13 4 49 38 49 46 0 3-8 5-19 5h-19l-5 20-5 20h-39l-21-23-21-22 3-30c5-43 5-43 24-5l17 35 23 3 22 3v-9c0-5-14-19-30-32l-30-23v-14c0-8 11-29 25-47s25-37 25-41 15-27 33-51l32-42 28 5 27 6v-12c0-14-11-18-77-25l-52-5-18 29c-17 30-41 46-52 34l-6-7 13-4c6-3 12-12 12-20v-15l-15 5-14 6-5-8c-3-5-24-11-46-15l-40-6v-20h-19c-10 0-24 6-30 13l-11 14 12 34c6 19 15 44 19 57l9 22h-30v21c0 11 5 29 10 40l11 19h19c10 0 22 5 25 11l7 10-18 21c-11 11-27 24-37 30l-18 9-15-11-14-12-14 5-14 6-17-12-16-13 7-17 6-18 18 16 18 16 29-3 28-3-22-20-23-19v-65l10-6 10-6-6-10-6-10-12 17-13 17-19-11-19-11 13-1h12v-31l8 5 9 5v-14c0-20-9-19-40 5-14 11-30 20-36 20s-16-9-23-20-17-20-23-20c-5 0-21-12-34-25-13-14-27-25-32-25s-9-6-9-14-7-16-15-20l-15-5v-31h-14c-8 0-16-5-18-11l-4-12-21 14-22 13 10 18c5 10 16 18 24 18s15 4 15 8c0 5 13 22 30 38 16 16 30 34 30 40s7 18 17 25c9 8 22 29 30 47l13 32h38c20 0 42 4 49 8l12 8-8 12-7 12-37 2-37 1v25c0 32-9 24-12-10l-2-25-19 5-18 5 5 12 5 13-15 6c-8 3-14 10-14 16v10h49l10 18 10 17 1-17v-18l18 1h17l24 31 24 30-14 9-14 9-17-20c-19-23-28-25-28-7v13l31 18 30 18 20-5 20-5 6 14 6 15-27 28c-14 15-26 31-26 37 0 10-40 29-80 39l-25 6-35-52-34-51 17-13c9-7 17-15 17-19 0-11-28-6-32 6l-4 11-30-10-30-10 1 25v25l-12 4-13 5v-35l-17-13-18-13 25-9c14-5 32-12 40-15l15-7-47 3-48 2-1-15-1-15-13 30-13 30-16-39c-9-21-16-43-16-49v-10l20 18 20 18v-54l-32-36c-51-56-71-73-85-73h-13v42l21 26 21 27-21 3-21 3v28c0 35 27 101 40 101s13-17 0-25c-5-3-10-13-10-22v-16l20 18c11 10 20 23 20 30 0 14 32 45 47 45 6 0 14-10 17-22l7-23 17 35c9 19 20 37 25 38 14 7 7 39-12 56l-19 17-5-16zm270-57-5-13v50l5-12c2-7 2-19 0-25zm-70-20-5-13-1 19c-1 11 2 17 5 13 3-3 4-12 1-19zm38-38 6-10h-10c-6 0-11 5-11 10 0 6 2 10 4 10 3 0 8-4 11-10zm-465-25c0-8-4-15-10-15-5 0-10 7-10 15s5 15 10 15c6 0 10-7 10-15zm53-16c-6-23-16-24-34-3l-13 16 14 8c7 4 19 6 25 3l13-4-5-20zm-81-31-12-12v48l12-12 12-12-12-12zm398 2v-10h-50v20h50v-10zm-120-50c0-5-4-10-10-10h-10v-40h-10c-14 0-12 28 3 45 14 17 27 19 27 5zm-200-24c0-16-28-42-36-33-8 7 14 47 26 47 6 0 10-6 10-14zm155-56 6-10h-42l6 10c3 6 10 10 15 10s12-4 15-10zm-653-35c0-5-5-11-11-13l-11-4v34l11-4c6-2 11-8 11-13zm838-46-12-22-9 14-8 14 17 18 16 19 4-11c2-5-2-20-8-32zm-880-25v-15l-10 6c-5 3-10 10-10 16 0 5 5 9 10 9 6 0 10-7 10-16zm1530-20c0-2-9-4-21-4h-20l6 10 6 9 14-6c8-3 15-7 15-9zm-497-5-11-11-19 11-18 10 30 1h29l-11-11zm-1069-14c8-8 19-15 25-15h11v-90h-18l-6 45-7 45h-14c-7 0-15 7-19 15l-5 15h9c5 0 15-7 24-15zm996-13c0-13-12-22-22-16l-8 5 5 10c8 11 25 12 25 1zm-40-52v-20h-10c-5 0-10 2-10 4s-3 11-6 20l-6 16h32v-20zm-440 0v-10h-35l15 10c19 12 20 12 20 0zm440-60c0-5-2-10-4-10-3 0-8 5-11 10l-6 10h10c6 0 11-4 11-10zm257 4c-3-3-12-4-19-1l-13 5 19 1c11 1 17-2 13-5zm-457-14c0-5-7-10-15-10s-15 5-15 10c0 6 7 10 15 10s15-4 15-10zm-707-20 5-20h-38v13c0 31 25 36 33 7zm817-10c0-5-5-10-11-10h-10l6 10c3 6 8 10 11 10 2 0 4-4 4-10zm240-84c0-2-7-6-15-9l-14-6-6 9-6 10h20c12 0 21-2 21-4zm273-33c-7-2-21-2-30 0l-18 5h60l-12-5zm-273-38v-15h-29l5 15c4 8 10 15 15 15s9-7 9-15zm752 538c1-65 3-100 5-78s8 49 14 60l10 21-5 29c-2 17-5 42-5 58l-1 27h-20l2-117zm-1625 77c-9-11-14-20-10-20s-2-6-13-14l-19-14 8-9 9-8 9 18 10 17h57l5-22 6-21 16 13 16 13-33 34c-38 39-38 39-61 13zm1453-94c0-8 5-18 10-21l10-6v41h-10c-5 0-10-6-10-14zm-1432-42 5-25 10 10 10 10-6 15c-4 9-10 16-15 16h-9l5-26zm1017-54 6-10-15-16c-9-8-16-24-16-36v-20l13 5c6 2 12 10 12 18v14l23 3c12 2 22 7 22 11 0 10-34 41-44 41h-7l6-10zm626-56-1-52-15-6-15-5v58l-15-5-15-6v-48h-20l1-32c0-18 4-42 9-53l9-20v13c1 17 21 15 21-3 0-8-4-15-9-15s-12-12-15-26l-7-26-16 6-16 7-9-13c-4-7-8-19-8-27v-13l14 5 14 6 7-22 7-22 10 35c5 19 14 39 19 45 5 5 9 17 9 26v17l15 6 15 6-6 25-6 25h22v26c0 14 4 33 9 42l9 17-8 40-8 40-1-51zm-99-164v-25l5 13c2 6 2 18 0 25l-5 12v-25zm-1634-37c7-3 16-2 19 1 4 3-2 6-13 5l-19-1 13-5zm-361-40-8-13h8c4 0 1-5-7-10l-15-9 12-12c17-17 25-6 21 28l-3 28-8-12zm588-13c-77-3-132-7-122-8 9-1 17-6 17-11v-9l-45 6-45 5v-20h-26c-14 0-30-5-36-11l-10-10 22-12 22-12-6 10-6 11 10 6 11 7-6-39c-10-57-15-73-26-73-5 0-9 5-9 10 0 16-38 50-56 50h-15l15-16c9-8 16-21 16-28 0-14 28-71 52-104l16-24 32 17c18 9 56 24 84 33l51 16 85-1h85l65-22c36-13 80-31 98-42 18-10 35-19 38-19 2 0 4 16 4 36v36l21 30 21 29-21 6c-11 3-21 9-21 14v9l-25-12-25-11v-37h-10c-5 0-10 5-10 10v10l-32 1-33 1 33 9 32 10v36l35 19c19 10 37 24 39 31l5 12-46 21c-25 11-56 20-69 20-12 0-33 3-46 8l-23 7-140-5zm167-22-13-13-97-1-97-1 75 4 75 4 9 9c6 6 21 10 35 10h25l-12-12zm-339-115c-7-2-21-2-30 0l-18 5h60l-12-5zm487-20c0-5-3-18-6-30l-6-23h-32l12 12c7 7 12 20 12 30v18h10c6 0 10-3 10-7zm-883 118-17-30 11-25c7-14 15-26 18-26 4 0 7-10 8-21 3-33 11-34 38-5 34 37 31 60-15 118-19 24-23 23-43-11zm1916-20c-3-9-14-34-23-56-10-22-21-50-24-62-4-13-12-23-17-23s-9-4-9-9c0-13-101-161-110-161-4 0-13-13-20-30-7-16-16-30-20-30-3 0-38-32-76-72-38-39-80-82-93-95l-24-23h17c9 0 16 5 16 10v10h18c10 0 23 5 28 10l11 11 12-15 12-15 22 17c42 34 77 75 83 98l6 24h14c8 0 14 5 14 11v10l10-6 10-6v14c0 8 7 17 15 21l15 5-6 14-5 14 21 6 20 5-10 27c-14 36-13 39 6 21l16-16 9 5c5 4 9 15 9 26v19h10c6 0 10 7 10 15v15h22l-5 13-5 13 19 12c10 7 18 15 18 20-3 19 3 33 22 51l21 19 5 51 5 50-32-1-32-1-5-16zm-2-104-12-12 7 18c3 10 9 15 12 12s0-11-7-18zm-21-47v-20h-20v40h20v-20zm-110-170c0-5-2-10-4-10-3 0-8 5-11 10l-6 10h10c6 0 11-4 11-10zm-95 320-6-10h10c5 0 13 5 16 10l6 10h-10c-5 0-13-4-16-10zm-780-40c-7-11 2-30 15-30 4 0 10 6 13 14l6 14-14 6-14 5-6-9zm48-33c2-7 14-14 26-15l23-4-6 10c-3 5-15 12-26 15l-21 5 4-11zm-868-27-6-10h10c6 0 11 5 11 10 0 6-2 10-4 10-3 0-8-4-11-10zm983-18 23-18 6-45c3-24 10-50 16-57l11-13-2-54-1-55 57-17 57-17 112-1h111l28 20c15 12 34 32 43 45l16 24-18-7-17-7 10 21 11 20 15-12 14-11v8c0 5 18 28 40 52l41 43-7 10-6 11-9-13-8-13-7 7-8 7 12 12c7 7 22 13 34 13h21l18 33c20 34 17 41-7 17-9-8-27-18-42-21s-39-12-54-20l-26-14-54-2-53-1 33-4c17-2 32-8 32-12 0-5 9-11 20-14s20-10 20-16c0-16-27-14-33 3l-6 14-43 6c-24 3-79 7-123 9l-80 4-65 22c-35 13-76 31-91 42-15 10-35 19-46 19h-18l23-18zm74-74c-15-15-24-6-16 16l7 17 10-10 11-11-12-12zm45-14c-3-3-12-4-19-1l-13 5 19 1c11 1 17-2 13-5zm80 0c-3-3-12-4-19-1l-13 5 19 1c11 1 17-2 13-5zm-127-19c0-8-4-15-10-15-5 0-10 7-10 15s5 15 10 15c6 0 10-7 10-15zm380-31v-15l-10 6-10 6 5 10c9 14 15 11 15-7zM507 993c-3-5 1-14 9-21l14-13v41h-9c-6 0-12-3-14-7zm58-16c-4-15-13-31-21-35l-13-7 34-55c19-30 35-51 35-46s11-3 25-18l25-27v-19c0-10 5-22 12-26l11-7-8 13-8 13 11-7c7-4 12-13 12-21 0-7 12-27 26-44l26-31 9 6 9 5v-28l26-11 25-12-5-9-6-9 17 2c9 2 19 8 21 14 2 7 10 12 18 12h13l-6 16-6 17-14-19-13-18-29 34c-16 19-27 37-24 40 2 2 7 0 11-6s15-14 26-17l18-7-6 16c-3 8-6 18-6 20s-6 4-14 4h-14l-5 20-5 20h-16c-9 0-16-4-16-10 0-5-5-10-11-10h-11l6 25 6 25-25 38c-22 32-30 35-26 10 0-5-6-8-15-8h-16l6 31 6 31-22 32c-12 17-27 36-34 41-6 6-16 19-22 30l-10 20-7-28zm60-87 6-10h-10c-6 0-11 5-11 10 0 6 2 10 4 10 3 0 8-4 11-10zm74-89 14-9-18-19-19-18 6 22 6 22-12 5-11 4 10 1c6 0 16-3 24-8zm715 168-19-21 15 2c8 1 23 2 33 1l18-1-6-11-7-10-31 3-32 3-3-22-3-23h63l-6 15-5 15h9c5 0 12-4 15-10 3-5 18-10 32-10h25l-6 16c-3 9-6 24-6 33v18l-25 11c-35 16-39 15-61-9zm-457-80-18-20-30 6-29 7-6-16-6-16 37-45 36-45h29v-30l24-9c13-5 26-16 29-23 2-8 39-38 81-67l77-53 31 11c17 6 42 11 55 11h23l10-25 10-25h14c7 0 20-7 27-16l14-17-23 7c-12 3-32 9-44 12-13 4-26 12-30 18l-8 11v-34l57-32 57-33h32l32-1-4-7c-2-4 0-9 5-12 12-8 78 20 88 37 4 8 18 19 30 26l22 11-6 17-6 16 45-7 46-7 14 14c8 8 24 18 36 21l22 7v59h-47l-37 25c-43 29-53 30-75 11l-16-15-119-7-118-7-11-18-11-17-13 5c-7 3-13 11-13 19v14h41l-5 93c-3 50-5 93-6 95 0 1-5 2-11 2h-10l5-17c2-10 1-36-4-58l-8-40-1 48-1 47h-19c-11 0-23-4-26-10-3-5-14-10-23-10h-17l33 26 33 26-30 19-30 18-42-2-43-1-4 12-4 12-61-1-62-1-18-19zm233-33c0-2-7-6-15-10l-15-5v9c0 6 7 10 15 10s15-2 15-4zm223-233-23-4v-29h-12c-7 0-24 3-38 7l-25 7 40 12c22 7 49 12 60 12l20-1-22-4zm238-9 13-16-18 3c-11 2-21 10-24 17l-4 12h10c5 0 16-7 23-16zm-264-50c-3-3-12-4-19-1l-13 5 19 1c11 1 17-2 13-5zm143-39c-7-8-16-15-21-15s-9 7-9 15v15h42l-12-15zm-140-15c0-5-2-10-4-10-3 0-8 5-11 10l-6 10h10c6 0 11-4 11-10zm80-34c0-3-4-8-10-11l-10-6v10c0 6 5 11 10 11 6 0 10-2 10-4zm-32 288 4-36 9 13c5 8 9 24 9 37v22h-26l4-36zm310-121c7-3 16-2 19 1 4 3-2 6-13 5l-19-1 13-5zm-898-48-13-24-11 6-11 6 10-11c6-6 32-29 60-51l49-40 17 15 17 15 7-11 7-11-12-14-11-13 10-6 9-6 16 16 17 16 14-6 15-5v10c0 15-102 109-119 109-5 0-14 7-21 15-18 22-35 18-50-10zm1171-21-13-15-32 2-31 3-20-11c-11-6-50-33-87-61l-67-49 11-11 11-11-19-8c-10-4-27-16-36-28l-17-20-1 17v16l13 5 12 4-6 7-6 7-77-41c-42-22-83-40-91-40-23 0-17-21 7-28l22-5-20-7-19-7-17 11-18 11-29-18c-35-21-60-21-85-2-11 8-29 15-40 15l-21-1 28-20c15-11 27-26 27-32v-12l-8 10c-8 12-47 31-82 41-44 12-69 44-34 44h16l-12 15c-7 8-17 15-22 15-6 0-30 14-55 30-46 31-68 37-78 20l-6-10-40 6-39 7v-12c0-10 13-15 33-12 4 0 7-3 7-8 0-13 67-51 90-51 10 0 23-6 27-13 9-16 43-31 61-28 6 1 12-2 12-7s14-12 31-16l30-6-6-10-6-10h41v-23l6 6 7 6 21-14 20-15h28c14 0 39 5 55 12 15 6 32 10 36 9l8-1-5 8-5 9 27 13c15 7 38 14 52 16 13 1 26 8 28 13 2 6 12 11 22 11s25 7 34 15c8 9 17 15 18 14 2-1 13 1 26 5l22 7-5 10-6 9 18 7c10 3 28 15 40 26l22 19 10-7 11-6 6 15 6 16 9-6 9-5v9c0 6 11 13 24 16l23 6 42 41c22 23 41 45 41 50 0 4 9 11 20 14l20 6v15c0 18-11 17-29-2zm-486-294c-3-4-14-10-25-13l-21-5 10 12c11 13 43 18 36 6zm-315 290-15-10h46l-6 10c-7 12-6 12-25 0zm-195-119-5-10 10-6 10-6v15c0 18-6 21-15 7zm45 0c0-11 26-22 34-14 3 3 3 10 0 14-7 12-34 11-34 0zm230-121c0-5 7-10 15-10s15 5 15 10c0 6-7 10-15 10s-15-4-15-10z"/></g><g fill="#3f7fa1" transform="matrix(.1 0 0 -.1 0 300)"><path d="m375 2550-20-9h15c8 0 22 4 30 9l15 10-10-1c-5 0-19-4-30-9zm-41-24c-3-8-4-25-2-38l4-23 5 38c5 38 2 47-7 23zm0-871-1-90 4 42c2 23 2 64 0 90l-3 48v-90zm112-548c3-10 9-15 12-12s0 11-7 18l-12 12 7-18zm499-73c-46-10-185-57-185-63 1-3 9-16 20-29l19-23 32 16c17 9 55 24 83 33l51 16 85-1h85l65-22c36-13 80-31 98-42 42-24 42-24 42 10v29l-56 26c-31 15-82 33-112 41l-56 15-76-1c-41-1-84-3-95-5zm435-124v-20h60v10c0 10-32 30-49 30h-11v-20zm-810-39c0-5 5-13 10-16l10-6v10c0 5-4 13-10 16l-10 6v-10zm1010-71v-29l52-16c29-8 82-18 119-21l66-7 56 7 56 7 33 29c18 16 30 31 28 34-3 3-26 0-50-5l-45-11-115 5-115 4-42 16-43 16v-29zm-890-94c0-2 8-10 18-17l17-14-14 18c-13 16-21 21-21 13zm190-180c0-2 8-10 18-17l17-14-14 18c-13 16-21 21-21 13z"/></g></g></svg>